<?xml version="1.0" encoding="utf-8"?>
<!-- Generator: Adobe Illustrator 23.0.1, SVG Export Plug-In . SVG Version: 6.00 Build 0)  -->
<svg version="1.1" id="Logo" xmlns="http://www.w3.org/2000/svg" xmlns:xlink="http://www.w3.org/1999/xlink" x="0px" y="0px"
	 viewBox="0 0 197 167" style="enable-background:new 0 0 197 167;" xml:space="preserve">
<style type="text/css">
	.st0{fill:#FF7657;}
	.st1{fill:#FFFFFF;}
</style>
<rect y="-2" class="st0" width="197" height="169"/>
<path class="st1" d="M174.3,104.1c0.1,0.1,0.1,0.3,0,0.5c-3.6,4.7-7.7,8.9-13.4,11.2c-6.9,2.8-13.7,1.7-20.4-0.9
	c-7.6-3-14.3-7.6-21.3-11.9c-5.3-3.2-10.7-6.3-16.2-9.2c-4.1-2.1-8.5-3.1-13.2-2.4c-4,0.6-7.4,2.4-9.9,5.7c-0.4,0.5-0.7,1-1.2,1.5
	c-1.3,1.6-3.5,1.3-3.9-0.8c-0.3-1.6-0.2-3.3,0-4.9c0.3-2.8,0.8-5.7,1.2-8.8c0.1-0.4-0.5-0.6-0.7-0.2c-0.5,0.8-0.9,1.5-1.4,2.1
	c-1.9,2.5-3.7,5.1-5.8,7.3c-2.5,2.7-5,2.4-7.2-0.5c-1-1.3-2-2.6-3-3.8c-1.4-1.7-2.7-1.9-4.1-0.2c-1.3,1.5-2.3,3.2-3.5,4.8
	c-1.1,1.5-2,3-3.2,4.4c-0.6,0.7-1.9,1.8-2.5,1.6c-1.3-0.4-0.7-1.9-0.6-2.9c0.6-3.4,1.3-6.9,1.9-10.3c0.1-0.6,0.2-1.2,0.1-1.9
	c0-0.4-0.2-0.9-0.5-1c-0.3-0.1-0.8,0.1-1.1,0.4c-1.2,1.3-2.5,2.7-3.6,4.1c-2.3,3-4.5,6.1-6.8,9.2c-0.2,0.3-0.3,0.6-0.6,0.7
	c-0.6,0.3-1.3,0.7-1.8,0.5c-0.4-0.2-0.8-1.1-0.7-1.6c0.4-2.6,1-5.2,1.5-7.8c0.1-0.7,0.3-1.3,0.4-2c0-0.3,0-0.7-0.1-1
	c0-0.2-0.3-0.4-0.5-0.3c-0.3,0.1-0.6,0.3-0.9,0.5c-2.4,2.5-4.8,5.1-7.2,7.6c-0.4,0.4-0.9,0.8-1.4,1.2c-0.1,0.1-0.3,0.1-0.4,0v0
	c-0.1-0.1-0.2-0.2-0.2-0.4c0.1-0.5,0.2-1,0.4-1.4c3.2-5.7,7.1-11.1,11.6-15.9c0.7-0.8,1.6-1.5,2.5-2.1c1.6-1.1,2.8-0.3,2.7,1.6
	c-0.2,2.2-0.5,4.5-0.8,6.7c0,0.3-0.1,0.7-0.1,1.1c0,0.3,0.4,0.5,0.6,0.2c1-1.3,2-2.6,3.1-3.8c1.4-1.7,2.7-3.3,4.1-4.9
	c0.6-0.7,1.3-1.3,2-1.7c0.8-0.4,2-0.7,2.7-0.4c0.5,0.2,0.7,1.6,0.7,2.5c-0.2,2.9-0.7,5.8-1,8.7c-0.1,0.4-0.1,0.9,0,1.3
	c0,0.3,0.5,0.5,0.7,0.2c0.6-0.9,1.3-1.9,2-2.8c0.9-1,1.8-2,2.8-2.9c1.8-1.5,4.2-1,5.3,1.1c0.5,1,0.9,2.1,1.3,3.3
	c1.2,3.8,4.3,4.5,6.9,1.4c1.8-2.2,3.4-4.6,4.8-7c3.5-6.2,5.5-13.1,7.6-19.8c1-3,1.9-5.9,3-8.9c0.3-0.7,1-1.6,1.6-1.7
	c0.7,0,1.6,0.6,2.1,1.3c1.3,1.7,1.6,3.7,0.9,5.8c-2.5,7.5-5,15-7.4,22.6c-1,3.1-1.5,6.3-2.2,9.4c0,0,0,0,0,0
	c-0.1,0.4,0.5,0.6,0.7,0.3c0.1-0.2,0.3-0.4,0.4-0.6c3.4-5.1,6.8-10.1,10.2-15.1c1-1.5,2.2-1.7,3.1-0.9c1.1,0.9,1.1,2.4,0.1,3.8
	c-2.7,3.6-5.3,7.3-8,11c-0.1,0.1-0.2,0.3-0.2,0.4c-0.1,0.3,0.1,0.6,0.4,0.5c3.2-1.2,6.2-1.6,9.3-1.2c5.3,0.6,10.2,2.5,14.8,5.1
	c6.2,3.6,12.3,7.4,18.5,11.1c5.5,3.4,11.1,6.6,17.4,8.5c10.2,3.2,19.1,1,26.7-6.6C173.9,104.6,174,104.3,174.3,104.1L174.3,104.1z"
	/>
</svg>
